<?xml version="1.0" encoding="iso-8859-1"?>
<!-- Generator: Adobe Illustrator 18.1.1, SVG Export Plug-In . SVG Version: 6.00 Build 0)  -->
<svg version="1.1" id="Capa_1" xmlns="http://www.w3.org/2000/svg" xmlns:xlink="http://www.w3.org/1999/xlink" x="0px" y="0px"
	 viewBox="0 0 13.36 13.36" style="enable-background:new 0 0 13.36 13.36;" xml:space="preserve">
<g>
	<path style="fill:#030104;" d="M13.019,0.683l0.032-0.034c0,0-0.022-0.01-0.057-0.024c-0.014-0.034-0.023-0.056-0.023-0.056
		L12.94,0.602c-0.403-0.167-1.826-0.689-2.282,0.018C10.124,1.447,9.083,0.066,8.324,1.1C7.62,2.059,7.561,2.614,5.689,2.91
		C3.833,3.202,3.32,4.572,3.647,5.8c0.327,1.229-0.454,1.207-0.591,1.908C2.992,8.062,2.934,8.425,2.908,8.819
		c-0.006,0.08-0.015,0.24-0.015,0.24S3,10.297,3.481,10.362c0.482,0.064-0.058,0.043-0.085,0.068c0,0-2.064,1.508-3.083,1.656
		c-1.018,0.148,0.792,0.531,0.546,0.969c-0.186,0.334,1.623-1.244,2.773-2.355l0.009,0.02c3.428-3.07,7.053-7.489,7.442-7.966
		l0.026-0.028c-0.2,0.333-4.168,6.924-6.551,8c0.081-0.004,0.161-0.008,0.241-0.014c0.396-0.025,0.757-0.084,1.112-0.148
		C6.61,10.425,6.59,9.646,7.818,9.972c1.229,0.328,2.599-0.186,2.891-2.041C11.004,6.057,11.56,6,12.52,5.296
		c1.034-0.759-0.348-1.8,0.479-2.334C13.705,2.508,13.186,1.091,13.019,0.683z"/>
</g>
<g>
</g>
<g>
</g>
<g>
</g>
<g>
</g>
<g>
</g>
<g>
</g>
<g>
</g>
<g>
</g>
<g>
</g>
<g>
</g>
<g>
</g>
<g>
</g>
<g>
</g>
<g>
</g>
<g>
</g>
</svg>
