<?xml version="1.0" encoding="iso-8859-1"?>
<!-- Generator: Adobe Illustrator 19.0.0, SVG Export Plug-In . SVG Version: 6.00 Build 0)  -->
<svg version="1.1" id="Capa_1" xmlns="http://www.w3.org/2000/svg" xmlns:xlink="http://www.w3.org/1999/xlink" x="0px" y="0px"
	 viewBox="0 0 235.1 235.1" style="enable-background:new 0 0 235.1 235.1;" xml:space="preserve">
<path d="M235.1,116.139l-83.691-26.522l-6.321,19.945l-29.153-72.089L46.593,0.001l40.508,87.1L0,46.592l37.474,69.342
	l72.089,29.154l-19.946,6.321l26.523,83.69l66.29-21.008l-14.69-46.351l46.351,14.689L235.1,116.139z M117.103,117.103
	c3.426-3.426,8.98-3.426,12.405,0c3.426,3.426,3.426,8.98,0,12.406c-3.426,3.426-8.98,3.426-12.405,0
	C113.677,126.083,113.677,120.528,117.103,117.103z M132.419,203.714l-11.418-36.026l18.626-5.902l11.418,36.026L132.419,203.714z
	 M197.812,151.044l-36.026-11.417l5.902-18.626l36.027,11.417L197.812,151.044z"/>
<g>
</g>
<g>
</g>
<g>
</g>
<g>
</g>
<g>
</g>
<g>
</g>
<g>
</g>
<g>
</g>
<g>
</g>
<g>
</g>
<g>
</g>
<g>
</g>
<g>
</g>
<g>
</g>
<g>
</g>
</svg>
